<?xml version="1.0" encoding="utf-8"?>
<!-- Generator: Adobe Illustrator 27.7.0, SVG Export Plug-In . SVG Version: 6.00 Build 0)  -->
<svg version="1.1" xmlns="http://www.w3.org/2000/svg" xmlns:xlink="http://www.w3.org/1999/xlink" x="0px" y="0px"
	 viewBox="0 0 229 157" style="enable-background:new 0 0 229 157;" xml:space="preserve">
<style type="text/css">
	.st0{fill:#38322D;}
</style>
<g id="圖層_2">
</g>
<g id="圖層_1">
	<g>
		<g>
			<g>
				<g>
					<path class="st0" d="M86.42,119.27c-0.57,4.04,4.59,4.93,7.38,7.31l9.18-0.04c2.33-2.19,2.32-5.17-0.03-7.34L86.42,119.27z"/>
					<path class="st0" d="M51.59,134.11l18.36-0.08c6.32-2.5,3.6-16.23,3.58-22.05l-22.03,0.09
						C51.53,119.42,51.56,126.77,51.59,134.11z"/>
					<path class="st0" d="M86.38,110.09l-11.02,0.05c1.98,3.49,5.41,5.65,7.38,9.15l11.02-0.05
						C94.82,114.19,88.13,114.01,86.38,110.09z"/>
					<path class="st0" d="M62.45,95.51l42.23-0.18c-0.01-1.22-0.01-2.45-0.02-3.67l-75.27,0.32c0-0.61-0.01-1.22-0.01-1.84
						l-7.34,0.03c0,0.61,0.01,1.22,0.01,1.84l-1.84,0.01c0.01,1.22,0.01,2.45,0.02,3.67l5.51-0.02c0,0.61,0.01,1.22,0.01,1.84
						l7.34-0.03c0-0.61-0.01-1.22-0.01-1.84l-0.83,0l8.26-0.04l-3.76,0.02c0,0.61,0.01,1.22,0.01,1.84l5.51-0.02
						c0-0.61-0.01-1.22-0.01-1.84l1.84-0.01c0.03,6.19-3.29,9.2-3.61,14.7l-1.84,0.01c0,0.61,0.01,1.22,0.01,1.84l-1.84,0.01
						c1.32,7.89-22.25,4.66-12.79,14.74l9.18-0.04c1.64-1.4,3.96-2.3,5.49-3.7c1.83-1.67,1.11-2.14,2.74-3.68
						c2.6-2.47,6.75-4,8.23-7.38l23.87-0.1c0-0.61-0.01-1.22-0.01-1.84l12.85-0.05c-3.23-5.59-5.54-7.91-5.57-14.66L62.45,95.51z"/>
					<path class="st0" d="M31.21,90.13c0,0.61,0.01,1.22,0.01,1.84l73.44-0.31c0-0.61-0.01-1.22-0.01-1.84L31.21,90.13z"/>
					<path class="st0" d="M95.45,84.35c-2.23,1.33-4.35,3.15-5.48,5.53l12.85-0.05c-1.23-1.83-2.46-3.66-3.7-5.49L95.45,84.35z"/>
					<path class="st0" d="M43.99,71.72c0,0.61,0.01,1.22,0.01,1.84l11.02-0.05c0-0.61-0.01-1.22-0.01-1.84L43.99,71.72z"/>
					<path class="st0" d="M100.84,56.79l-11.02,0.05c-0.5,0.88-3.62,4.19-3.65,4.61c-0.08,0.99,3.32,2.66,3.69,3.66
						c1.21,3.24,1.9,6.38,5.54,8.24l9.18-0.04c-0.25-3.31,1.82-4.78,1.8-8.27C106.36,60.54,104.61,59.36,100.84,56.79z"/>
					<path class="st0" d="M31.14,73.61c3.07-4.77,8.92-12.88,1.77-16.53l-7.34,0.03c-8.56,5.78-8.09,8.77-3.6,16.54L31.14,73.61z"/>
					<path class="st0" d="M36.55,49.72c-0.03-6.89,0.57-10.49-5.57-14.66L19.96,35.1c-3.86,6.37-5.07,9.94,1.9,14.68L36.55,49.72z"
						/>
					<path class="st0" d="M89.8,51.33l12.85-0.05c3.42-1.61,4.57-6,4.55-9.2c-0.02-2.74-3.16-5.37-2.79-9.17l-3.67,0.02
						C96.04,36.11,79.74,47.26,89.8,51.33z"/>
					<path class="st0" d="M42.01,38.68l36.21-0.15l-10.51,0.04c0.01,2.45,0.02,4.9,0.03,7.34l-12.85,0.05
						c-0.01-2.45-0.02-4.9-0.03-7.34L42.01,38.68c0.01,2.45,0.02,4.9,0.03,7.34s0.02,4.9,0.03,7.34c0.02,4.9,0.04,9.79,0.06,14.69
						c0.01,1.22,0.01,2.45,0.02,3.67l26.23-0.11l-11.54,0.05c0,0.61,0.01,1.22,0.01,1.84l-1.84,0.01c-1.91,3.4-3.12,4.49-3.64,8.28
						c-0.36,2.63,0.02,5.6,0.04,8.26l22.03-0.09c-0.01-2.72,0.68-6.56-0.04-9.18c-1.17-4.24-3.74-4.21-7.38-7.31l11.02-0.05
						c0-0.61-0.01-1.22-0.01-1.84l1.84-0.01c0.61-1.23,1.21-2.45,1.82-3.68l1.84-0.01c-0.03-6.05,1.48-9.81-0.06-14.69
						c1.9-2,2.19-4.7,1.8-7.35l-1.84,0.01c-0.01-2.45-0.02-4.9-0.03-7.34l1.84-0.01c-1.8-2.47-1.91-4.86-3.7-7.33l-3.67,0.02
						c0-0.61-0.01-1.22-0.01-1.84l-5.51,0.02c0,0.61,0.01,1.22,0.01,1.84l-10.1,0.04l6.43-0.03c3.28-3.29,2.52-9.31-1.88-11.01
						l-3.67,0.02c-5.04,1.91-13.13,4.73-7.3,11.05l-12.85,0.05C41.99,33.78,42,36.23,42.01,38.68z M67.84,67.95l9.37-0.04L54.99,68
						c-0.02-4.9-0.04-9.79-0.06-14.69l12.85-0.05C67.8,58.15,67.82,63.05,67.84,67.95z"/>
				</g>
			</g>
		</g>
		<g>
			<g>
				<g>
					<path class="st0" d="M193.5,119.27c-0.57,4.04,4.59,4.93,7.38,7.31l9.18-0.04c2.33-2.19,2.32-5.17-0.03-7.34L193.5,119.27z"/>
					<path class="st0" d="M158.67,134.11l18.36-0.08c6.32-2.5,3.6-16.23,3.58-22.05l-22.03,0.09
						C158.61,119.42,158.64,126.77,158.67,134.11z"/>
					<path class="st0" d="M193.46,110.09l-11.02,0.05c1.98,3.49,5.41,5.65,7.38,9.15l11.02-0.05
						C201.9,114.19,195.21,114.01,193.46,110.09z"/>
					<path class="st0" d="M171.27,95.5l40.49-0.17c-0.01-1.22-0.01-2.45-0.02-3.67l-75.27,0.32c0-0.61-0.01-1.22-0.01-1.84
						l-7.34,0.03c0,0.61,0.01,1.22,0.01,1.84l-1.84,0.01c0.01,1.22,0.01,2.45,0.02,3.67l5.51-0.02c0,0.61,0.01,1.22,0.01,1.84
						l7.34-0.03c0-0.61-0.01-1.22-0.01-1.84l-0.78,0l8.18-0.03l-3.73,0.02c0,0.61,0.01,1.22,0.01,1.84l5.51-0.02
						c0-0.61-0.01-1.22-0.01-1.84l1.84-0.01c0.03,6.19-3.29,9.2-3.61,14.7l-1.84,0.01c0,0.61,0.01,1.22,0.01,1.84l-1.84,0.01
						c1.32,7.89-22.25,4.66-12.79,14.74l9.18-0.04c1.64-1.4,3.96-2.3,5.49-3.7c1.83-1.67,1.11-2.14,2.74-3.68
						c2.6-2.47,6.75-4,8.23-7.38l23.87-0.1c0-0.61-0.01-1.22-0.01-1.84l12.85-0.05c-3.23-5.59-5.54-7.91-5.57-14.66L171.27,95.5z"/>
					<path class="st0" d="M138.29,90.13c0,0.61,0.01,1.22,0.01,1.84l73.44-0.31c0-0.61-0.01-1.22-0.01-1.84L138.29,90.13z"/>
					<path class="st0" d="M202.53,84.35c-2.23,1.33-4.35,3.15-5.48,5.53l12.85-0.05c-1.23-1.83-2.46-3.66-3.7-5.49L202.53,84.35z"/>
					<path class="st0" d="M151.06,71.72c0,0.61,0.01,1.22,0.01,1.84l11.02-0.05c0-0.61-0.01-1.22-0.01-1.84L151.06,71.72z"/>
					<path class="st0" d="M207.92,56.79l-11.02,0.05c-0.5,0.88-3.62,4.19-3.65,4.61c-0.08,0.99,3.32,2.66,3.69,3.66
						c1.21,3.24,1.9,6.38,5.54,8.24l9.18-0.04c-0.25-3.31,1.82-4.78,1.8-8.27C213.44,60.54,211.69,59.36,207.92,56.79z"/>
					<path class="st0" d="M138.22,73.61c3.07-4.77,8.92-12.88,1.77-16.53l-7.34,0.03c-8.56,5.78-8.09,8.77-3.6,16.54L138.22,73.61z"
						/>
					<path class="st0" d="M143.63,49.72c-0.03-6.89,0.57-10.49-5.57-14.66l-11.02,0.05c-3.86,6.37-5.07,9.94,1.9,14.68L143.63,49.72
						z"/>
					<path class="st0" d="M196.88,51.33l12.85-0.05c3.42-1.61,4.57-6,4.55-9.2c-0.02-2.74-3.16-5.37-2.79-9.17l-3.67,0.02
						C203.12,36.11,186.82,47.26,196.88,51.33z"/>
					<path class="st0" d="M149.09,38.68l36.21-0.15l-10.51,0.04c0.01,2.45,0.02,4.9,0.03,7.34l-12.85,0.05
						c-0.01-2.45-0.02-4.9-0.03-7.34L149.09,38.68c0.01,2.45,0.02,4.9,0.03,7.34s0.02,4.9,0.03,7.34c0.02,4.9,0.04,9.79,0.06,14.69
						c0.01,1.22,0.01,2.45,0.02,3.67l26.23-0.11l-11.54,0.05c0,0.61,0.01,1.22,0.01,1.84l-1.84,0.01c-1.91,3.4-3.12,4.49-3.64,8.28
						c-0.36,2.63,0.02,5.6,0.04,8.26l22.03-0.09c-0.01-2.72,0.68-6.56-0.04-9.18c-1.17-4.24-3.74-4.21-7.38-7.31l11.02-0.05
						c0-0.61-0.01-1.22-0.01-1.84l1.84-0.01c0.61-1.23,1.21-2.45,1.82-3.68l1.84-0.01c-0.03-6.05,1.48-9.81-0.06-14.69
						c1.9-2,2.19-4.7,1.8-7.35l-1.84,0.01c-0.01-2.45-0.02-4.9-0.03-7.34l1.84-0.01c-1.8-2.47-1.91-4.86-3.7-7.33l-3.67,0.02
						c0-0.61-0.01-1.22-0.01-1.84l-5.51,0.02c0,0.61,0.01,1.22,0.01,1.84l-10.1,0.04l6.43-0.03c3.28-3.29,2.52-9.31-1.88-11.01
						l-3.67,0.02c-5.04,1.91-13.13,4.73-7.3,11.05l-12.85,0.05C149.07,33.78,149.08,36.23,149.09,38.68z M174.92,67.95l9.37-0.04
						L162.07,68c-0.02-4.9-0.04-9.79-0.06-14.69l12.85-0.05C174.88,58.15,174.9,63.05,174.92,67.95z"/>
				</g>
			</g>
		</g>
	</g>
</g>
</svg>
